<mxfile host="app.diagrams.net" agent="Mozilla/5.0 (Windows NT 10.0; Win64; x64) AppleWebKit/537.36 (KHTML, like Gecko) Chrome/132.0.0.0 Safari/537.36" version="26.0.14">
  <diagram name="Page-1" id="gud6pJyIlZkr-N1z4Vs-">
    <mxGraphModel dx="507" dy="393" grid="1" gridSize="10" guides="1" tooltips="1" connect="1" arrows="1" fold="1" page="1" pageScale="1" pageWidth="850" pageHeight="1100" math="0" shadow="0">
      <root>
        <mxCell id="0" />
        <mxCell id="1" parent="0" />
        <mxCell id="h7hN1MDnIonBRrhjed5A-1" value="Process" style="rounded=0;whiteSpace=wrap;html=1;" vertex="1" parent="1">
          <mxGeometry x="180" y="100" width="120" height="60" as="geometry" />
        </mxCell>
        <mxCell id="h7hN1MDnIonBRrhjed5A-2" value="A yes or no question" style="rhombus;whiteSpace=wrap;html=1;" vertex="1" parent="1">
          <mxGeometry x="200" y="240" width="80" height="80" as="geometry" />
        </mxCell>
        <mxCell id="h7hN1MDnIonBRrhjed5A-3" value="" style="endArrow=classic;html=1;rounded=0;exitX=0.5;exitY=1;exitDx=0;exitDy=0;entryX=0.5;entryY=0;entryDx=0;entryDy=0;" edge="1" parent="1" source="h7hN1MDnIonBRrhjed5A-1" target="h7hN1MDnIonBRrhjed5A-2">
          <mxGeometry width="50" height="50" relative="1" as="geometry">
            <mxPoint x="420" y="270" as="sourcePoint" />
            <mxPoint x="470" y="220" as="targetPoint" />
          </mxGeometry>
        </mxCell>
        <mxCell id="h7hN1MDnIonBRrhjed5A-8" value="" style="edgeStyle=orthogonalEdgeStyle;rounded=0;orthogonalLoop=1;jettySize=auto;html=1;" edge="1" parent="1" source="h7hN1MDnIonBRrhjed5A-5" target="h7hN1MDnIonBRrhjed5A-7">
          <mxGeometry relative="1" as="geometry" />
        </mxCell>
        <mxCell id="h7hN1MDnIonBRrhjed5A-5" value="Get a number from user and store in a variable named input" style="rounded=0;whiteSpace=wrap;html=1;" vertex="1" parent="1">
          <mxGeometry x="425" y="210" width="120" height="60" as="geometry" />
        </mxCell>
        <mxCell id="h7hN1MDnIonBRrhjed5A-12" value="" style="edgeStyle=orthogonalEdgeStyle;rounded=0;orthogonalLoop=1;jettySize=auto;html=1;" edge="1" parent="1" source="h7hN1MDnIonBRrhjed5A-7" target="h7hN1MDnIonBRrhjed5A-11">
          <mxGeometry relative="1" as="geometry" />
        </mxCell>
        <mxCell id="h7hN1MDnIonBRrhjed5A-14" value="Yes" style="edgeLabel;html=1;align=center;verticalAlign=middle;resizable=0;points=[];" vertex="1" connectable="0" parent="h7hN1MDnIonBRrhjed5A-12">
          <mxGeometry x="-0.4915" y="1" relative="1" as="geometry">
            <mxPoint as="offset" />
          </mxGeometry>
        </mxCell>
        <mxCell id="h7hN1MDnIonBRrhjed5A-16" value="" style="edgeStyle=orthogonalEdgeStyle;rounded=0;orthogonalLoop=1;jettySize=auto;html=1;" edge="1" parent="1" source="h7hN1MDnIonBRrhjed5A-7" target="h7hN1MDnIonBRrhjed5A-15">
          <mxGeometry relative="1" as="geometry" />
        </mxCell>
        <mxCell id="h7hN1MDnIonBRrhjed5A-17" value="" style="edgeStyle=orthogonalEdgeStyle;rounded=0;orthogonalLoop=1;jettySize=auto;html=1;" edge="1" parent="1" source="h7hN1MDnIonBRrhjed5A-7" target="h7hN1MDnIonBRrhjed5A-15">
          <mxGeometry relative="1" as="geometry" />
        </mxCell>
        <mxCell id="h7hN1MDnIonBRrhjed5A-18" value="No" style="edgeLabel;html=1;align=center;verticalAlign=middle;resizable=0;points=[];" vertex="1" connectable="0" parent="h7hN1MDnIonBRrhjed5A-17">
          <mxGeometry x="0.0317" relative="1" as="geometry">
            <mxPoint as="offset" />
          </mxGeometry>
        </mxCell>
        <mxCell id="h7hN1MDnIonBRrhjed5A-7" value="Is the&lt;br&gt;number&lt;br&gt;big?" style="rhombus;whiteSpace=wrap;html=1;rounded=0;" vertex="1" parent="1">
          <mxGeometry x="445" y="300" width="80" height="80" as="geometry" />
        </mxCell>
        <mxCell id="h7hN1MDnIonBRrhjed5A-11" value="Print &quot;Big&quot;" style="whiteSpace=wrap;html=1;rounded=0;" vertex="1" parent="1">
          <mxGeometry x="585" y="310" width="120" height="60" as="geometry" />
        </mxCell>
        <mxCell id="h7hN1MDnIonBRrhjed5A-20" style="edgeStyle=orthogonalEdgeStyle;rounded=0;orthogonalLoop=1;jettySize=auto;html=1;entryX=0.5;entryY=0;entryDx=0;entryDy=0;" edge="1" parent="1" source="h7hN1MDnIonBRrhjed5A-15" target="h7hN1MDnIonBRrhjed5A-19">
          <mxGeometry relative="1" as="geometry">
            <Array as="points">
              <mxPoint x="325" y="400" />
              <mxPoint x="485" y="400" />
            </Array>
          </mxGeometry>
        </mxCell>
        <mxCell id="h7hN1MDnIonBRrhjed5A-15" value="Print &quot;Small&quot;" style="rounded=0;whiteSpace=wrap;html=1;" vertex="1" parent="1">
          <mxGeometry x="265" y="310" width="120" height="60" as="geometry" />
        </mxCell>
        <mxCell id="h7hN1MDnIonBRrhjed5A-19" value="Print &quot;Done&quot;" style="rounded=0;whiteSpace=wrap;html=1;" vertex="1" parent="1">
          <mxGeometry x="425" y="430" width="120" height="60" as="geometry" />
        </mxCell>
        <mxCell id="h7hN1MDnIonBRrhjed5A-22" value="" style="endArrow=classic;html=1;rounded=0;exitX=0.5;exitY=1;exitDx=0;exitDy=0;" edge="1" parent="1" source="h7hN1MDnIonBRrhjed5A-11" target="h7hN1MDnIonBRrhjed5A-19">
          <mxGeometry width="50" height="50" relative="1" as="geometry">
            <mxPoint x="540" y="380" as="sourcePoint" />
            <mxPoint x="590" y="330" as="targetPoint" />
          </mxGeometry>
        </mxCell>
      </root>
    </mxGraphModel>
  </diagram>
</mxfile>
